ply
format ascii 1.0
comment Created by Blender 3.0.1 - www.blender.org
element vertex 217
property float x
property float y
property float z
property float nx
property float ny
property float nz
property float s
property float t
element face 217
property list uchar uint vertex_indices
end_header
0.741373 0.427723 0.000000 0.000000 0.000000 1.000000 0.389474 0.000000
0.849487 0.427742 0.000000 0.000000 0.000000 1.000000 0.368421 0.000000
0.795000 0.431000 0.000000 0.000000 0.000000 1.000000 0.378947 0.000000
0.900310 0.418268 0.000000 0.000000 0.000000 1.000000 0.357895 0.000000
0.691153 0.418199 0.000000 0.000000 0.000000 1.000000 0.400000 0.000000
0.947266 0.403031 0.000000 0.000000 0.000000 1.000000 0.347368 0.000000
0.644578 0.402890 0.000000 0.000000 0.000000 1.000000 0.410526 0.000000
0.990148 0.382481 0.000000 0.000000 0.000000 1.000000 0.336842 0.000000
0.601889 0.382259 0.000000 0.000000 0.000000 1.000000 0.421053 0.000000
1.028753 0.357070 0.000000 0.000000 0.000000 1.000000 0.326316 0.000000
0.563325 0.356767 0.000000 0.000000 0.000000 1.000000 0.431579 0.000000
1.062875 0.327250 0.000000 0.000000 0.000000 1.000000 0.315789 0.000000
0.529125 0.326875 0.000000 0.000000 0.000000 1.000000 0.442105 0.000000
0.795000 0.341000 0.000000 0.000000 0.000000 1.000000 0.631579 0.000000
0.757855 0.338749 0.000000 0.000000 0.000000 1.000000 0.621053 0.000000
0.832374 0.338749 0.000000 0.000000 0.000000 1.000000 0.642105 0.000000
0.867829 0.332157 0.000000 0.000000 0.000000 1.000000 0.652632 0.000000
0.722593 0.332157 0.000000 0.000000 0.000000 1.000000 0.610526 0.000000
0.901109 0.321469 0.000000 0.000000 0.000000 1.000000 0.663158 0.000000
0.689469 0.321468 0.000000 0.000000 0.000000 1.000000 0.600000 0.000000
1.092310 0.293471 0.000000 0.000000 0.000000 1.000000 0.305263 0.000000
0.499530 0.293046 0.000000 0.000000 0.000000 1.000000 0.452632 0.000000
0.931963 0.306926 0.000000 0.000000 0.000000 1.000000 0.673684 0.000000
0.658741 0.306926 0.000000 0.000000 0.000000 1.000000 0.589474 0.000000
0.960136 0.288772 0.000000 0.000000 0.000000 1.000000 0.684211 0.000000
0.630666 0.288772 0.000000 0.000000 0.000000 1.000000 0.578947 0.000000
1.116852 0.256185 0.000000 0.000000 0.000000 1.000000 0.294737 0.000000
0.474778 0.255741 0.000000 0.000000 0.000000 1.000000 0.463158 0.000000
0.985375 0.267250 0.000000 0.000000 0.000000 1.000000 0.694737 0.000000
0.605500 0.267250 0.000000 0.000000 0.000000 1.000000 0.568421 0.000000
1.007427 0.242603 0.000000 0.000000 0.000000 1.000000 0.705263 0.000000
0.583501 0.242603 0.000000 0.000000 0.000000 1.000000 0.557895 0.000000
1.136297 0.215844 0.000000 0.000000 0.000000 1.000000 0.284211 0.000000
0.455109 0.215422 0.000000 0.000000 0.000000 1.000000 0.473684 0.000000
1.026037 0.215074 0.000000 0.000000 0.000000 1.000000 0.715789 0.000000
0.564926 0.215074 0.000000 0.000000 0.000000 1.000000 0.547368 0.000000
1.150440 0.172898 0.000000 0.000000 0.000000 1.000000 0.273684 0.000000
0.440764 0.172551 0.000000 0.000000 0.000000 1.000000 0.484211 0.000000
1.040953 0.184906 0.000000 0.000000 0.000000 1.000000 0.726316 0.000000
0.550031 0.184906 0.000000 0.000000 0.000000 1.000000 0.536842 0.000000
1.051922 0.152342 0.000000 0.000000 0.000000 1.000000 0.736842 0.000000
0.539074 0.152342 0.000000 0.000000 0.000000 1.000000 0.526316 0.000000
1.159076 0.127800 0.000000 0.000000 0.000000 1.000000 0.263158 0.000000
0.431981 0.127589 0.000000 0.000000 0.000000 1.000000 0.494737 0.000000
1.058688 0.117626 0.000000 0.000000 0.000000 1.000000 0.747368 0.000000
0.532311 0.117626 0.000000 0.000000 0.000000 1.000000 0.515789 0.000000
1.162000 0.081000 0.000000 0.000000 0.000000 1.000000 0.252632 0.000000
0.429000 0.081000 0.000000 0.000000 0.000000 1.000000 0.000000 0.000000
1.061000 0.081000 0.000000 0.000000 0.000000 1.000000 0.757895 0.000000
0.530000 0.081000 0.000000 0.000000 0.000000 1.000000 0.505263 0.000000
0.431903 0.035250 0.000000 -0.000000 0.000000 1.000000 0.010526 0.000000
0.532311 0.044584 0.000000 0.000000 0.000000 1.000000 1.000000 0.000000
1.058688 0.044584 0.000000 -0.000000 0.000000 1.000000 0.768421 0.000000
1.159151 0.035460 0.000000 0.000000 0.000000 1.000000 0.242105 0.000000
0.539074 0.010004 0.000000 0.000000 0.000000 1.000000 0.989474 0.000000
1.051921 0.010004 0.000000 0.000000 0.000000 1.000000 0.778947 0.000000
1.150708 -0.008815 0.000000 0.000000 0.000000 1.000000 0.231579 0.000000
0.440477 -0.009162 0.000000 0.000000 0.000000 1.000000 0.021053 0.000000
0.550031 -0.022485 0.000000 0.000000 0.000000 1.000000 0.978947 0.000000
1.040953 -0.022485 0.000000 0.000000 0.000000 1.000000 0.789474 0.000000
1.136828 -0.051313 0.000000 0.000000 0.000000 1.000000 0.221053 0.000000
0.454516 -0.051735 0.000000 0.000000 0.000000 1.000000 0.031579 0.000000
1.026037 -0.052630 0.000000 0.000000 0.000000 1.000000 0.800000 0.000000
0.564926 -0.052630 0.000000 0.000000 0.000000 1.000000 0.968421 0.000000
1.117667 -0.091519 0.000000 0.000000 0.000000 1.000000 0.210526 0.000000
0.473815 -0.091963 0.000000 0.000000 0.000000 1.000000 0.042105 0.000000
1.007427 -0.080178 0.000000 0.000000 0.000000 1.000000 0.810526 0.000000
0.583501 -0.080178 0.000000 0.000000 0.000000 1.000000 0.957895 0.000000
0.985375 -0.104875 0.000000 0.000000 0.000000 1.000000 0.821053 0.000000
0.605500 -0.104875 0.000000 0.000000 0.000000 1.000000 0.947368 0.000000
1.093380 -0.128919 0.000000 0.000000 0.000000 1.000000 0.200000 0.000000
0.498170 -0.129345 0.000000 0.000000 0.000000 1.000000 0.052632 0.000000
0.960136 -0.126468 0.000000 0.000000 0.000000 1.000000 0.831579 0.000000
0.630666 -0.126468 0.000000 0.000000 0.000000 1.000000 0.936842 0.000000
0.931963 -0.144704 0.000000 0.000000 0.000000 1.000000 0.842105 0.000000
0.658741 -0.144704 0.000000 0.000000 0.000000 1.000000 0.926316 0.000000
1.064125 -0.163000 0.000000 0.000000 0.000000 1.000000 0.189474 0.000000
0.527375 -0.163375 0.000000 0.000000 0.000000 1.000000 0.063158 0.000000
0.901109 -0.159328 0.000000 0.000000 0.000000 1.000000 0.852632 0.000000
0.689469 -0.159328 0.000000 0.000000 0.000000 1.000000 0.915789 0.000000
0.867829 -0.170088 0.000000 0.000000 0.000000 1.000000 0.863158 0.000000
0.722593 -0.170088 0.000000 0.000000 0.000000 1.000000 0.905263 0.000000
1.030057 -0.193248 0.000000 0.000000 0.000000 1.000000 0.178947 0.000000
0.561226 -0.193552 0.000000 0.000000 0.000000 1.000000 0.073684 0.000000
0.832374 -0.176730 0.000000 0.000000 0.000000 1.000000 0.873684 0.000000
0.757855 -0.176730 0.000000 0.000000 0.000000 1.000000 0.894737 0.000000
0.795000 -0.179000 0.000000 0.000000 0.000000 1.000000 0.884211 0.000000
0.991333 -0.219148 0.000000 0.000000 0.000000 1.000000 0.168421 0.000000
0.599519 -0.219371 0.000000 0.000000 0.000000 1.000000 0.084211 0.000000
0.948110 -0.240188 0.000000 0.000000 0.000000 1.000000 0.157895 0.000000
0.642047 -0.240328 0.000000 0.000000 0.000000 1.000000 0.094737 0.000000
0.900542 -0.255852 0.000000 0.000000 0.000000 1.000000 0.147368 0.000000
0.688607 -0.255922 0.000000 0.000000 0.000000 1.000000 0.105263 0.000000
0.848787 -0.265628 0.000000 0.000000 0.000000 1.000000 0.136842 0.000000
0.738992 -0.265647 0.000000 0.000000 0.000000 1.000000 0.115789 0.000000
0.793000 -0.269000 0.000000 0.000000 0.000000 1.000000 0.126316 0.000000
-0.324000 -0.260000 0.000000 -0.000000 0.000000 1.000000 0.357143 0.000000
-0.232000 0.422000 0.000000 -0.000000 0.000000 1.000000 0.214286 0.000000
-0.324000 0.422000 0.000000 -0.000000 0.000000 1.000000 0.285714 0.000000
-0.226000 0.271000 0.000000 0.000000 0.000000 1.000000 0.500000 0.000000
-0.224000 0.271000 0.000000 0.000000 0.000000 1.000000 0.571429 0.000000
-0.006000 0.142000 0.000000 0.000000 0.000000 1.000000 0.142857 0.000000
0.312000 0.422000 0.000000 -0.000000 0.000000 1.000000 0.000000 0.000000
0.221000 0.422000 0.000000 -0.000000 0.000000 1.000000 0.071429 0.000000
0.212000 0.271000 0.000000 0.000000 0.000000 1.000000 0.785714 0.000000
0.214000 0.271000 0.000000 0.000000 0.000000 1.000000 0.857143 0.000000
0.312000 -0.260000 0.000000 0.000000 0.000000 1.000000 1.000000 0.000000
-0.226000 -0.260000 0.000000 0.000000 0.000000 1.000000 0.428571 0.000000
-0.014000 0.007000 0.000000 0.000000 0.000000 1.000000 0.642857 0.000000
0.002000 0.007000 0.000000 0.000000 0.000000 1.000000 0.714286 0.000000
0.214000 -0.260000 0.000000 0.000000 0.000000 1.000000 0.928571 0.000000
-0.885000 -0.260000 0.000000 0.000000 0.000000 1.000000 0.000000 0.000000
-0.787000 0.334000 0.000000 0.000000 0.000000 1.000000 0.495238 0.000000
-0.885000 0.422000 0.000000 0.000000 0.000000 1.000000 0.485714 0.000000
-0.687000 0.422000 0.000000 -0.000000 0.000000 1.000000 0.476190 0.000000
-0.651988 0.420219 0.000000 0.000000 0.000000 1.000000 0.466667 0.000000
-0.620403 0.415083 0.000000 0.000000 0.000000 1.000000 0.457143 0.000000
-0.592172 0.406906 0.000000 0.000000 0.000000 1.000000 0.447619 0.000000
-0.567222 0.396000 0.000000 0.000000 0.000000 1.000000 0.438095 0.000000
-0.545481 0.382677 0.000000 0.000000 0.000000 1.000000 0.428571 0.000000
-0.526875 0.367250 0.000000 0.000000 0.000000 1.000000 0.419048 0.000000
-0.511332 0.350031 0.000000 0.000000 0.000000 1.000000 0.409524 0.000000
-0.697000 0.334000 0.000000 0.000000 0.000000 1.000000 0.504762 0.000000
-0.498778 0.331333 0.000000 0.000000 0.000000 1.000000 0.400000 0.000000
-0.787000 0.130000 0.000000 0.000000 0.000000 1.000000 0.742857 0.000000
-0.675752 0.333105 0.000000 0.000000 0.000000 1.000000 0.514286 0.000000
-0.656935 0.330504 0.000000 0.000000 0.000000 1.000000 0.523810 0.000000
-0.489141 0.311469 0.000000 0.000000 0.000000 1.000000 0.390476 0.000000
-0.640437 0.326328 0.000000 0.000000 0.000000 1.000000 0.533333 0.000000
-0.626148 0.320704 0.000000 0.000000 0.000000 1.000000 0.542857 0.000000
-0.613956 0.313760 0.000000 0.000000 0.000000 1.000000 0.552381 0.000000
-0.603750 0.305625 0.000000 0.000000 0.000000 1.000000 0.561905 0.000000
-0.482347 0.290750 0.000000 0.000000 0.000000 1.000000 0.380952 0.000000
-0.595419 0.296427 0.000000 0.000000 0.000000 1.000000 0.571429 0.000000
-0.588852 0.286296 0.000000 0.000000 0.000000 1.000000 0.580952 0.000000
-0.478325 0.269489 0.000000 0.000000 0.000000 1.000000 0.371429 0.000000
-0.583938 0.275359 0.000000 0.000000 0.000000 1.000000 0.590476 0.000000
-0.580565 0.263745 0.000000 0.000000 0.000000 1.000000 0.600000 0.000000
-0.477000 0.248000 0.000000 0.000000 0.000000 1.000000 0.361905 0.000000
-0.578623 0.251583 0.000000 0.000000 0.000000 1.000000 0.609524 0.000000
-0.578000 0.239000 0.000000 0.000000 0.000000 1.000000 0.619048 0.000000
-0.477690 0.230766 0.000000 0.000000 0.000000 1.000000 0.352381 0.000000
-0.578981 0.221520 0.000000 0.000000 0.000000 1.000000 0.628571 0.000000
-0.479773 0.214546 0.000000 0.000000 0.000000 1.000000 0.342857 0.000000
-0.581931 0.205578 0.000000 0.000000 0.000000 1.000000 0.638095 0.000000
-0.483266 0.199312 0.000000 0.000000 0.000000 1.000000 0.333333 0.000000
-0.586859 0.191172 0.000000 0.000000 0.000000 1.000000 0.647619 0.000000
-0.488185 0.185037 0.000000 0.000000 0.000000 1.000000 0.323810 0.000000
-0.593778 0.178296 0.000000 0.000000 0.000000 1.000000 0.657143 0.000000
-0.494549 0.171692 0.000000 0.000000 0.000000 1.000000 0.314286 0.000000
-0.602696 0.166948 0.000000 0.000000 0.000000 1.000000 0.666667 0.000000
-0.502375 0.159250 0.000000 0.000000 0.000000 1.000000 0.304762 0.000000
-0.613625 0.157125 0.000000 0.000000 0.000000 1.000000 0.676190 0.000000
-0.511680 0.147683 0.000000 0.000000 0.000000 1.000000 0.295238 0.000000
-0.626575 0.148822 0.000000 0.000000 0.000000 1.000000 0.685714 0.000000
-0.641556 0.142037 0.000000 0.000000 0.000000 1.000000 0.695238 0.000000
-0.522482 0.136963 0.000000 0.000000 0.000000 1.000000 0.285714 0.000000
-0.658578 0.136765 0.000000 0.000000 0.000000 1.000000 0.704762 0.000000
-0.534797 0.127062 0.000000 0.000000 0.000000 1.000000 0.276190 0.000000
-0.677653 0.133004 0.000000 0.000000 0.000000 1.000000 0.714286 0.000000
-0.698790 0.130750 0.000000 0.000000 0.000000 1.000000 0.723810 0.000000
-0.722000 0.130000 0.000000 0.000000 0.000000 1.000000 0.733333 0.000000
-0.787000 0.042000 0.000000 0.000000 0.000000 1.000000 0.752381 0.000000
-0.548644 0.117954 0.000000 0.000000 0.000000 1.000000 0.266667 0.000000
-0.564039 0.109609 0.000000 0.000000 0.000000 1.000000 0.257143 0.000000
-0.581000 0.102000 0.000000 0.000000 0.000000 1.000000 0.247619 0.000000
-0.581000 0.100000 0.000000 0.000000 0.000000 1.000000 0.238095 0.000000
-0.556346 0.094263 0.000000 0.000000 0.000000 1.000000 0.228571 0.000000
-0.533435 0.086606 0.000000 0.000000 0.000000 1.000000 0.219048 0.000000
-0.512344 0.077109 0.000000 0.000000 0.000000 1.000000 0.209524 0.000000
-0.493148 0.065852 0.000000 0.000000 0.000000 1.000000 0.200000 0.000000
-0.475925 0.052914 0.000000 0.000000 0.000000 1.000000 0.190476 0.000000
-0.669000 0.042000 0.000000 0.000000 0.000000 1.000000 0.761905 0.000000
-0.460750 0.038375 0.000000 0.000000 0.000000 1.000000 0.180952 0.000000
-0.787000 -0.172000 0.000000 0.000000 0.000000 1.000000 1.000000 0.000000
-0.644392 0.041098 0.000000 0.000000 0.000000 1.000000 0.771429 0.000000
-0.622051 0.038453 0.000000 0.000000 0.000000 1.000000 0.780952 0.000000
-0.601953 0.034156 0.000000 0.000000 0.000000 1.000000 0.790476 0.000000
-0.447700 0.022315 0.000000 0.000000 0.000000 1.000000 0.171429 0.000000
-0.584074 0.028296 0.000000 0.000000 0.000000 1.000000 0.800000 0.000000
-0.568389 0.020964 0.000000 0.000000 0.000000 1.000000 0.809524 0.000000
-0.436852 0.004815 0.000000 0.000000 0.000000 1.000000 0.161905 0.000000
-0.554875 0.012250 0.000000 0.000000 0.000000 1.000000 0.819048 0.000000
-0.543506 0.002244 0.000000 0.000000 0.000000 1.000000 0.828571 0.000000
-0.428281 -0.014047 0.000000 0.000000 0.000000 1.000000 0.152381 0.000000
-0.534259 -0.008963 0.000000 0.000000 0.000000 1.000000 0.838095 0.000000
-0.527109 -0.021281 0.000000 0.000000 0.000000 1.000000 0.847619 0.000000
-0.422065 -0.034190 0.000000 0.000000 0.000000 1.000000 0.142857 0.000000
-0.522032 -0.034621 0.000000 0.000000 0.000000 1.000000 0.857143 0.000000
-0.418279 -0.055534 0.000000 0.000000 0.000000 1.000000 0.133333 0.000000
-0.519004 -0.048890 0.000000 0.000000 0.000000 1.000000 0.866667 0.000000
-0.518000 -0.064000 0.000000 0.000000 0.000000 1.000000 0.876190 0.000000
-0.417000 -0.078000 0.000000 0.000000 0.000000 1.000000 0.123810 0.000000
-0.518677 -0.076839 0.000000 0.000000 0.000000 1.000000 0.885714 0.000000
-0.520829 -0.089709 0.000000 0.000000 0.000000 1.000000 0.895238 0.000000
-0.418339 -0.099227 0.000000 0.000000 0.000000 1.000000 0.114286 0.000000
-0.524641 -0.102391 0.000000 0.000000 0.000000 1.000000 0.904762 0.000000
-0.422458 -0.120648 0.000000 0.000000 0.000000 1.000000 0.104762 0.000000
-0.530296 -0.114667 0.000000 0.000000 0.000000 1.000000 0.914286 0.000000
-0.537980 -0.126318 0.000000 0.000000 0.000000 1.000000 0.923810 0.000000
-0.429516 -0.141875 0.000000 0.000000 0.000000 1.000000 0.095238 0.000000
-0.547875 -0.137125 0.000000 0.000000 0.000000 1.000000 0.933333 0.000000
-0.560166 -0.146870 0.000000 0.000000 0.000000 1.000000 0.942857 0.000000
-0.439667 -0.162519 0.000000 0.000000 0.000000 1.000000 0.085714 0.000000
-0.575037 -0.155334 0.000000 0.000000 0.000000 1.000000 0.952381 0.000000
-0.592672 -0.162297 0.000000 0.000000 0.000000 1.000000 0.961905 0.000000
-0.613255 -0.167542 0.000000 0.000000 0.000000 1.000000 0.971429 0.000000
-0.453068 -0.182190 0.000000 0.000000 0.000000 1.000000 0.076190 0.000000
-0.636969 -0.170849 0.000000 0.000000 0.000000 1.000000 0.980952 0.000000
-0.664000 -0.172000 0.000000 0.000000 0.000000 1.000000 0.990476 0.000000
-0.469875 -0.200500 0.000000 0.000000 0.000000 1.000000 0.066667 0.000000
-0.490245 -0.217060 0.000000 0.000000 0.000000 1.000000 0.057143 0.000000
-0.514333 -0.231482 0.000000 0.000000 0.000000 1.000000 0.047619 0.000000
-0.542297 -0.243375 0.000000 0.000000 0.000000 1.000000 0.038095 0.000000
-0.574292 -0.252352 0.000000 0.000000 0.000000 1.000000 0.028571 0.000000
-0.610474 -0.258023 0.000000 0.000000 0.000000 1.000000 0.019048 0.000000
-0.651000 -0.260000 0.000000 0.000000 0.000000 1.000000 0.009524 0.000000
3 0 1 2
3 0 3 1
3 4 3 0
3 4 5 3
3 6 5 4
3 6 7 5
3 8 7 6
3 8 9 7
3 10 9 8
3 10 11 9
3 12 13 10
3 13 11 10
3 12 14 13
3 15 11 13
3 16 11 15
3 12 17 14
3 18 11 16
3 12 19 17
3 18 20 11
3 21 19 12
3 22 20 18
3 21 23 19
3 24 20 22
3 21 25 23
3 24 26 20
3 27 25 21
3 28 26 24
3 27 29 25
3 30 26 28
3 27 31 29
3 30 32 26
3 33 31 27
3 34 32 30
3 33 35 31
3 34 36 32
3 37 35 33
3 38 36 34
3 37 39 35
3 40 36 38
3 37 41 39
3 40 42 36
3 43 41 37
3 44 42 40
3 43 45 41
3 44 46 42
3 47 45 43
3 48 46 44
3 47 49 45
3 50 49 47
3 50 51 49
3 52 46 48
3 52 53 46
3 50 54 51
3 55 53 52
3 55 56 53
3 57 54 50
3 57 58 54
3 59 56 55
3 59 60 56
3 61 58 57
3 62 60 59
3 61 63 58
3 62 64 60
3 65 63 61
3 66 64 62
3 65 67 63
3 68 64 66
3 65 69 67
3 68 70 64
3 71 69 65
3 72 70 68
3 71 73 69
3 74 70 72
3 71 75 73
3 74 76 70
3 77 75 71
3 78 76 74
3 77 79 75
3 80 76 78
3 77 81 79
3 80 82 76
3 83 81 77
3 84 82 80
3 83 85 81
3 86 82 84
3 83 86 85
3 83 82 86
3 83 87 82
3 88 87 83
3 88 89 87
3 90 89 88
3 90 91 89
3 92 91 90
3 92 93 91
3 94 93 92
3 94 95 93
3 96 97 98
3 96 99 97
3 99 100 97
3 100 101 97
3 101 102 103
3 101 104 102
3 104 105 102
3 105 106 102
3 96 107 99
3 108 101 100
3 101 109 104
3 110 106 105
3 108 109 101
3 111 112 113
3 112 114 113
3 112 115 114
3 112 116 115
3 112 117 116
3 112 118 117
3 112 119 118
3 112 120 119
3 112 121 120
3 112 122 121
3 122 123 121
3 111 124 112
3 125 123 122
3 126 123 125
3 126 127 123
3 128 127 126
3 129 127 128
3 130 127 129
3 131 127 130
3 131 132 127
3 133 132 131
3 134 132 133
3 134 135 132
3 136 135 134
3 137 135 136
3 137 138 135
3 139 138 137
3 140 138 139
3 140 141 138
3 142 141 140
3 142 143 141
3 144 143 142
3 144 145 143
3 146 145 144
3 146 147 145
3 148 147 146
3 148 149 147
3 150 149 148
3 150 151 149
3 152 151 150
3 152 153 151
3 154 153 152
3 155 153 154
3 155 156 153
3 157 156 155
3 157 158 156
3 159 158 157
3 160 158 159
3 161 158 160
3 111 162 124
3 162 161 124
3 162 158 161
3 162 163 158
3 162 164 163
3 162 165 164
3 162 166 165
3 162 167 166
3 162 168 167
3 162 169 168
3 162 170 169
3 162 171 170
3 162 172 171
3 172 173 171
3 111 174 162
3 175 173 172
3 176 173 175
3 177 173 176
3 177 178 173
3 179 178 177
3 180 178 179
3 180 181 178
3 182 181 180
3 183 181 182
3 183 184 181
3 185 184 183
3 186 184 185
3 186 187 184
3 188 187 186
3 188 189 187
3 190 189 188
3 191 189 190
3 191 192 189
3 193 192 191
3 194 192 193
3 194 195 192
3 196 195 194
3 196 197 195
3 198 197 196
3 199 197 198
3 199 200 197
3 201 200 199
3 202 200 201
3 202 203 200
3 204 203 202
3 205 203 204
3 206 203 205
3 206 207 203
3 208 207 206
3 209 207 208
3 111 209 174
3 111 207 209
3 111 210 207
3 111 211 210
3 111 212 211
3 111 213 212
3 111 214 213
3 111 215 214
3 111 216 215
